<svg width="30" height="30" viewBox="0 0 30 30" fill="none" xmlns="http://www.w3.org/2000/svg">
<path d="M27.2559 12.5513H26.25V12.5H15V17.5H22.0654C21.0327 20.4102 18.2642 22.5 15 22.5C10.8569 22.5 7.5 19.1431 7.5 15C7.5 10.8569 10.8569 7.5 15 7.5C16.9116 7.5 18.6523 8.22022 19.9756 9.39942L23.5107 5.86426C21.2793 3.78418 18.2935 2.5 15 2.5C8.0957 2.5 2.5 8.0957 2.5 15C2.5 21.9043 8.0957 27.5 15 27.5C21.9043 27.5 27.5 21.9043 27.5 15C27.5 14.1626 27.4146 13.3447 27.2559 12.5513Z" fill="#FFC107"/>
<path d="M3.94043 9.18213L8.04932 12.1948C9.16016 9.44336 11.8506 7.5 15 7.5C16.9116 7.5 18.6523 8.22022 19.9756 9.39941L23.5107 5.86426C21.2793 3.78418 18.2935 2.5 15 2.5C10.1978 2.5 6.03516 5.20996 3.94043 9.18213Z" fill="#FF3D00"/>
<path d="M15 27.5C18.2275 27.5 21.1621 26.2647 23.3813 24.2554L19.5117 20.9814C18.2568 21.9312 16.6968 22.5 15 22.5C11.748 22.5 8.98926 20.4272 7.94922 17.5342L3.87207 20.6738C5.93994 24.7217 10.1416 27.5 15 27.5Z" fill="#4CAF50"/>
<path d="M27.2559 12.5513H26.25V12.5H15V17.5H22.0654C21.5698 18.8989 20.6689 20.1025 19.5093 20.9814C19.5117 20.9814 19.5117 20.9814 19.5117 20.9814L23.3813 24.2554C23.1079 24.502 27.5 21.25 27.5 15C27.5 14.1626 27.4146 13.3447 27.2559 12.5513Z" fill="#1976D2"/>
</svg>
